<svg width="44" height="31" viewBox="0 0 44 31" fill="none" xmlns="http://www.w3.org/2000/svg">
<path d="M43.4 26.8667C43.4 29.14 41.54 31 39.2667 31H4.13333C1.86 31 0 29.14 0 26.8667V4.13333C0 1.86 1.86 0 4.13333 0H39.2667C41.54 0 43.4 1.86 43.4 4.13333V26.8667Z" fill="#E1E7EA"/>
<path d="M43.4003 26.8671C43.4003 29.1404 41.5403 31.0004 39.2669 31.0004H13.4336C13.4336 31.0004 37.8203 27.0737 43.4003 15.5004V26.8671ZM19.6336 15.5004C19.6336 17.2571 20.9769 18.6004 22.7336 18.6004C24.4903 18.6004 25.8336 17.2571 25.8336 15.5004C25.8336 13.7437 24.4903 12.4004 22.7336 12.4004C20.9769 12.4004 19.6336 13.7437 19.6336 15.5004Z" fill="#FF6D00"/>
<path d="M8.47294 12.4002H9.60961V18.6002H8.47294V12.4002ZM14.6729 15.5002C14.6729 17.2569 16.0163 18.6002 17.7729 18.6002C18.2896 18.6002 18.7029 18.4969 19.2196 18.2902V16.9469C18.8063 17.3602 18.3929 17.5669 17.7729 17.5669C16.6363 17.5669 15.8096 16.7402 15.8096 15.5002C15.8096 14.3635 16.6363 13.4335 17.7729 13.4335C18.2896 13.4335 18.7029 13.6402 19.2196 14.0535V12.7102C18.7029 12.5035 18.2896 12.2969 17.7729 12.2969C16.0163 12.4002 14.6729 13.8469 14.6729 15.5002ZM28.5196 16.4302L26.8663 12.4002H25.6263L28.2096 18.6002H28.8296L31.4129 12.4002H30.1729L28.5196 16.4302ZM31.9296 18.6002H35.2363V17.5669H33.0663V15.9135H35.1329V14.8802H33.0663V13.4335H35.2363V12.4002H31.9296V18.6002ZM39.7829 14.2602C39.7829 13.1235 39.0596 12.4002 37.7163 12.4002H35.9596V18.6002H37.0963V16.1202H37.1996L38.8529 18.6002H40.2996L38.4396 16.0169C39.2663 15.8102 39.7829 15.1902 39.7829 14.2602ZM37.4063 15.2935H37.0963V13.4335H37.4063C38.1296 13.4335 38.5429 13.7435 38.5429 14.3635C38.5429 14.8802 38.2329 15.2935 37.4063 15.2935ZM4.85628 12.4002H3.09961V18.6002H4.75294C7.33628 18.6002 7.95628 16.4302 7.95628 15.5002C8.05961 13.6402 6.71628 12.4002 4.85628 12.4002ZM4.54628 17.5669H4.23628V13.4335H4.64961C6.19961 13.4335 6.81961 14.4669 6.81961 15.5002C6.81961 15.9135 6.71628 17.5669 4.54628 17.5669ZM12.7096 14.7769C11.9863 14.4669 11.7796 14.3635 11.7796 14.0535C11.7796 13.6402 12.1929 13.4335 12.6063 13.4335C12.9163 13.4335 13.2263 13.5369 13.5363 13.9502L14.1563 13.1235C13.6396 12.6069 13.1229 12.4002 12.3996 12.4002C11.3663 12.4002 10.5396 13.1235 10.5396 14.1569C10.5396 14.9835 10.9529 15.3969 11.9863 15.8102C12.6063 16.0169 13.1229 16.2235 13.1229 16.7402C13.1229 17.2569 12.7096 17.5669 12.1929 17.5669C11.6763 17.5669 11.1596 17.2569 10.9529 16.7402L10.2296 17.4635C10.7463 18.2902 11.3663 18.6002 12.2963 18.6002C13.5363 18.6002 14.3629 17.7735 14.3629 16.6369C14.3629 15.7069 13.9496 15.2935 12.7096 14.7769Z" fill="black"/>
</svg>
