<svg width="32" height="32" viewBox="0 0 32 32" fill="none" xmlns="http://www.w3.org/2000/svg">
<circle opacity="0.75" cx="16" cy="16" r="16" fill="white"/>
<path d="M21.8351 21.0384L19.0223 18.2256C19.7161 17.3586 20.134 16.2612 20.134 15.067C20.134 12.2729 17.8608 10 15.067 10C12.2732 10 10 12.2729 10 15.067C10 17.8611 12.2732 20.134 15.067 20.134C16.2617 20.134 17.3591 19.7161 18.2261 19.0217L21.0389 21.8345C21.1489 21.9445 21.293 21.9995 21.437 21.9995C21.581 21.9995 21.7251 21.9445 21.835 21.8345C22.055 21.6146 22.055 21.2583 21.8351 21.0384ZM11.126 15.067C11.126 12.8942 12.8939 11.126 15.067 11.126C17.2401 11.126 19.008 12.8942 19.008 15.067C19.008 17.2398 17.2401 19.008 15.067 19.008C12.8939 19.008 11.126 17.2398 11.126 15.067Z" fill="#242424"/>
</svg>
