<svg width="36" height="14" viewBox="0 0 36 14" fill="none" xmlns="http://www.w3.org/2000/svg">
<path d="M26.5689 0.41054C27.1163 0.957926 27.1163 1.8427 26.5689 2.39009L23.3588 5.60021H33.9789C34.7517 5.60021 35.3789 6.22739 35.3789 7.00017C35.3789 7.77296 34.7517 8.40014 33.9789 8.40014H23.3588L26.5689 11.6103C27.1163 12.1576 27.1163 13.0424 26.5689 13.5898C26.2959 13.8628 25.9375 14 25.5792 14C25.2208 14 24.8624 13.8628 24.5894 13.5898L17.9997 7.00017L24.5894 0.41054C25.1368 -0.136847 26.0215 -0.136847 26.5689 0.41054Z" fill="#404040"/>
<path d="M8.80998 0.41054C8.26259 0.957926 8.26259 1.8427 8.80998 2.39009L12.0201 5.60021H1.39997C0.627184 5.60021 0 6.22739 0 7.00018C0 7.77296 0.627184 8.40014 1.39997 8.40014H12.0201L8.80998 11.6103C8.26259 12.1576 8.26259 13.0424 8.80998 13.5898C9.08297 13.8628 9.44136 14 9.79976 14C10.1581 14 10.5165 13.8628 10.7895 13.5898L17.3792 7.00018L10.7895 0.41054C10.2421 -0.136847 9.35737 -0.136847 8.80998 0.41054Z" fill="#404040"/>
</svg>
