<svg width="48" height="48" viewBox="0 0 48 48" fill="none" xmlns="http://www.w3.org/2000/svg">
<circle cx="24" cy="24" r="23.5" transform="matrix(-1 0 0 1 48 0)" stroke="#008949"/>
<path d="M13.2858 25.1777L21.5719 33.5104C21.893 33.8386 22.3177 34 22.7423 34C23.167 34 23.5906 33.8372 23.9138 33.5117C24.5611 32.8608 24.5611 31.8061 23.9138 31.1551L18.4543 25.6672H34.3429C35.258 25.6672 36 24.9225 36 24.0007C36 23.0788 35.258 22.3341 34.3429 22.3341H18.4543L23.9127 16.8449C24.5601 16.1939 24.5601 15.1392 23.9127 14.4882C23.2654 13.8373 22.2167 13.8373 21.5693 14.4882L13.2832 22.821C12.6385 23.4746 12.6385 24.5267 13.2858 25.1777Z" fill="#008949"/>
</svg>
