<svg width="70" height="70" viewBox="0 0 70 70" fill="none" xmlns="http://www.w3.org/2000/svg">
<rect width="70" height="70" fill="white"/>
<path fill-rule="evenodd" clip-rule="evenodd" d="M35.1219 40.2439C45.1304 40.2439 53.2439 32.1304 53.2439 22.1219C53.2439 12.1135 45.1304 4 35.1219 4C25.1135 4 17 12.1135 17 22.1219C17 32.1304 25.1135 40.2439 35.1219 40.2439ZM35.1219 42.2439C46.235 42.2439 55.2439 33.235 55.2439 22.1219C55.2439 11.0089 46.235 2 35.1219 2C24.0089 2 15 11.0089 15 22.1219C15 33.235 24.0089 42.2439 35.1219 42.2439Z" fill="#008949"/>
<path fill-rule="evenodd" clip-rule="evenodd" d="M25.3457 22.1221C25.3457 21.5698 25.7934 21.1221 26.3457 21.1221H43.8975C44.4498 21.1221 44.8975 21.5698 44.8975 22.1221C44.8975 22.6744 44.4498 23.1221 43.8975 23.1221H26.3457C25.7934 23.1221 25.3457 22.6744 25.3457 22.1221Z" fill="#008949"/>
<path d="M58.8914 63.754C58.2674 63.754 57.7154 63.626 57.2354 63.37C56.7634 63.114 56.3954 62.758 56.1314 62.302C55.8674 61.838 55.7354 61.306 55.7354 60.706V58.138C55.7354 57.546 55.8674 57.022 56.1314 56.566C56.3954 56.11 56.7634 55.758 57.2354 55.51C57.7154 55.254 58.2674 55.126 58.8914 55.126C59.5234 55.126 60.0754 55.254 60.5474 55.51C61.0274 55.758 61.3994 56.11 61.6634 56.566C61.9274 57.022 62.0594 57.546 62.0594 58.138V60.706C62.0594 61.306 61.9274 61.838 61.6634 62.302C61.3994 62.766 61.0274 63.126 60.5474 63.382C60.0754 63.63 59.5234 63.754 58.8914 63.754ZM58.8914 62.302C59.3314 62.302 59.6874 62.162 59.9594 61.882C60.2314 61.602 60.3674 61.23 60.3674 60.766V58.126C60.3674 57.662 60.2314 57.29 59.9594 57.01C59.6954 56.722 59.3394 56.578 58.8914 56.578C58.4514 56.578 58.0954 56.722 57.8234 57.01C57.5594 57.29 57.4274 57.662 57.4274 58.126V60.766C57.4274 61.23 57.5594 61.602 57.8234 61.882C58.0954 62.162 58.4514 62.302 58.8914 62.302Z" fill="#008949"/>
<path d="M54.9606 56.5297C54.9606 56.5697 54.9446 56.6057 54.9126 56.6377C54.8886 56.6617 54.8566 56.6737 54.8166 56.6737H50.8926C50.8526 56.6737 50.8326 56.6937 50.8326 56.7337V58.5937C50.8326 58.6337 50.8526 58.6537 50.8926 58.6537H53.4726C53.5126 58.6537 53.5446 58.6697 53.5686 58.7017C53.6006 58.7257 53.6166 58.7577 53.6166 58.7977V59.9617C53.6166 60.0017 53.6006 60.0377 53.5686 60.0697C53.5446 60.0937 53.5126 60.1057 53.4726 60.1057H50.8926C50.8526 60.1057 50.8326 60.1257 50.8326 60.1657V63.4777C50.8326 63.5177 50.8166 63.5537 50.7846 63.5857C50.7606 63.6097 50.7286 63.6217 50.6886 63.6217H49.2846C49.2446 63.6217 49.2086 63.6097 49.1766 63.5857C49.1526 63.5537 49.1406 63.5177 49.1406 63.4777V55.3657C49.1406 55.3257 49.1526 55.2937 49.1766 55.2697C49.2086 55.2377 49.2446 55.2217 49.2846 55.2217H54.8166C54.8566 55.2217 54.8886 55.2377 54.9126 55.2697C54.9446 55.2937 54.9606 55.3257 54.9606 55.3657V56.5297Z" fill="#008949"/>
<path d="M45.9939 55.3657C45.9939 55.3257 46.0059 55.2937 46.0299 55.2697C46.0619 55.2377 46.0979 55.2217 46.1379 55.2217H47.5419C47.5819 55.2217 47.6139 55.2377 47.6379 55.2697C47.6699 55.2937 47.6859 55.3257 47.6859 55.3657V63.4777C47.6859 63.5177 47.6699 63.5537 47.6379 63.5857C47.6139 63.6097 47.5819 63.6217 47.5419 63.6217H46.1859C46.1059 63.6217 46.0499 63.5897 46.0179 63.5257L42.9099 58.3897C42.8939 58.3657 42.8779 58.3577 42.8619 58.3657C42.8459 58.3657 42.8379 58.3817 42.8379 58.4137L42.8619 63.4777C42.8619 63.5177 42.8459 63.5537 42.8139 63.5857C42.7899 63.6097 42.7579 63.6217 42.7179 63.6217H41.3139C41.2739 63.6217 41.2379 63.6097 41.2059 63.5857C41.1819 63.5537 41.1699 63.5177 41.1699 63.4777V55.3657C41.1699 55.3257 41.1819 55.2937 41.2059 55.2697C41.2379 55.2377 41.2739 55.2217 41.3139 55.2217H42.6699C42.7499 55.2217 42.8059 55.2537 42.8379 55.3177L45.9339 60.4297C45.9499 60.4537 45.9659 60.4657 45.9819 60.4657C45.9979 60.4577 46.0059 60.4377 46.0059 60.4057L45.9939 55.3657Z" fill="#008949"/>
<path d="M38.102 63.6217C38.062 63.6217 38.026 63.6097 37.994 63.5857C37.97 63.5537 37.958 63.5177 37.958 63.4777V55.3657C37.958 55.3257 37.97 55.2937 37.994 55.2697C38.026 55.2377 38.062 55.2217 38.102 55.2217H39.506C39.546 55.2217 39.578 55.2377 39.602 55.2697C39.634 55.2937 39.65 55.3257 39.65 55.3657V63.4777C39.65 63.5177 39.634 63.5537 39.602 63.5857C39.578 63.6097 39.546 63.6217 39.506 63.6217H38.102Z" fill="#008949"/>
<path d="M31.179 63.718C30.539 63.718 29.979 63.618 29.499 63.418C29.019 63.21 28.647 62.918 28.383 62.542C28.127 62.158 27.999 61.714 27.999 61.21V60.946C27.999 60.906 28.011 60.874 28.035 60.85C28.067 60.818 28.103 60.802 28.143 60.802H29.511C29.551 60.802 29.583 60.818 29.607 60.85C29.639 60.874 29.655 60.906 29.655 60.946V61.126C29.655 61.446 29.803 61.718 30.099 61.942C30.395 62.158 30.795 62.266 31.299 62.266C31.723 62.266 32.039 62.178 32.247 62.002C32.455 61.818 32.559 61.594 32.559 61.33C32.559 61.138 32.495 60.978 32.367 60.85C32.239 60.714 32.063 60.598 31.839 60.502C31.623 60.398 31.275 60.258 30.795 60.082C30.259 59.898 29.803 59.71 29.427 59.518C29.059 59.326 28.747 59.066 28.491 58.738C28.243 58.402 28.119 57.99 28.119 57.502C28.119 57.022 28.243 56.602 28.491 56.242C28.739 55.882 29.083 55.606 29.523 55.414C29.963 55.222 30.471 55.126 31.047 55.126C31.655 55.126 32.195 55.234 32.667 55.45C33.147 55.666 33.519 55.97 33.783 56.362C34.055 56.746 34.191 57.194 34.191 57.706V57.886C34.191 57.926 34.175 57.962 34.143 57.994C34.119 58.018 34.087 58.03 34.047 58.03H32.667C32.627 58.03 32.591 58.018 32.559 57.994C32.535 57.962 32.523 57.926 32.523 57.886V57.79C32.523 57.454 32.383 57.17 32.103 56.938C31.831 56.698 31.455 56.578 30.975 56.578C30.599 56.578 30.303 56.658 30.087 56.818C29.879 56.978 29.775 57.198 29.775 57.478C29.775 57.678 29.835 57.846 29.955 57.982C30.083 58.118 30.267 58.242 30.507 58.354C30.755 58.458 31.135 58.602 31.647 58.786C32.215 58.994 32.659 59.178 32.979 59.338C33.307 59.498 33.599 59.738 33.855 60.058C34.119 60.37 34.251 60.778 34.251 61.282C34.251 62.034 33.975 62.63 33.423 63.07C32.871 63.502 32.123 63.718 31.179 63.718Z" fill="#008949"/>
<path d="M23.9818 63.718C23.3418 63.718 22.7818 63.618 22.3018 63.418C21.8218 63.21 21.4498 62.918 21.1858 62.542C20.9298 62.158 20.8018 61.714 20.8018 61.21V60.946C20.8018 60.906 20.8138 60.874 20.8378 60.85C20.8698 60.818 20.9058 60.802 20.9458 60.802H22.3138C22.3538 60.802 22.3858 60.818 22.4098 60.85C22.4418 60.874 22.4578 60.906 22.4578 60.946V61.126C22.4578 61.446 22.6058 61.718 22.9018 61.942C23.1978 62.158 23.5978 62.266 24.1018 62.266C24.5258 62.266 24.8418 62.178 25.0498 62.002C25.2578 61.818 25.3618 61.594 25.3618 61.33C25.3618 61.138 25.2978 60.978 25.1698 60.85C25.0418 60.714 24.8658 60.598 24.6418 60.502C24.4258 60.398 24.0778 60.258 23.5978 60.082C23.0618 59.898 22.6058 59.71 22.2298 59.518C21.8618 59.326 21.5498 59.066 21.2938 58.738C21.0458 58.402 20.9218 57.99 20.9218 57.502C20.9218 57.022 21.0458 56.602 21.2938 56.242C21.5418 55.882 21.8858 55.606 22.3258 55.414C22.7658 55.222 23.2738 55.126 23.8498 55.126C24.4578 55.126 24.9978 55.234 25.4698 55.45C25.9498 55.666 26.3218 55.97 26.5858 56.362C26.8578 56.746 26.9938 57.194 26.9938 57.706V57.886C26.9938 57.926 26.9778 57.962 26.9458 57.994C26.9218 58.018 26.8898 58.03 26.8498 58.03H25.4698C25.4298 58.03 25.3938 58.018 25.3618 57.994C25.3378 57.962 25.3258 57.926 25.3258 57.886V57.79C25.3258 57.454 25.1858 57.17 24.9058 56.938C24.6338 56.698 24.2578 56.578 23.7778 56.578C23.4018 56.578 23.1058 56.658 22.8898 56.818C22.6818 56.978 22.5778 57.198 22.5778 57.478C22.5778 57.678 22.6378 57.846 22.7578 57.982C22.8858 58.118 23.0698 58.242 23.3098 58.354C23.5578 58.458 23.9378 58.602 24.4498 58.786C25.0178 58.994 25.4618 59.178 25.7818 59.338C26.1098 59.498 26.4018 59.738 26.6578 60.058C26.9218 60.37 27.0538 60.778 27.0538 61.282C27.0538 62.034 26.7778 62.63 26.2258 63.07C25.6738 63.502 24.9258 63.718 23.9818 63.718Z" fill="#008949"/>
<path d="M19.8662 56.5297C19.8662 56.5697 19.8502 56.6057 19.8182 56.6377C19.7942 56.6617 19.7622 56.6737 19.7222 56.6737H15.7862C15.7462 56.6737 15.7262 56.6937 15.7262 56.7337V58.5937C15.7262 58.6337 15.7462 58.6537 15.7862 58.6537H18.3662C18.4062 58.6537 18.4382 58.6697 18.4622 58.7017C18.4942 58.7257 18.5102 58.7577 18.5102 58.7977V59.9617C18.5102 60.0017 18.4942 60.0377 18.4622 60.0697C18.4382 60.0937 18.4062 60.1057 18.3662 60.1057H15.7862C15.7462 60.1057 15.7262 60.1257 15.7262 60.1657V62.1097C15.7262 62.1497 15.7462 62.1697 15.7862 62.1697H19.7222C19.7622 62.1697 19.7942 62.1857 19.8182 62.2177C19.8502 62.2417 19.8662 62.2737 19.8662 62.3137V63.4777C19.8662 63.5177 19.8502 63.5537 19.8182 63.5857C19.7942 63.6097 19.7622 63.6217 19.7222 63.6217H14.1782C14.1382 63.6217 14.1022 63.6097 14.0702 63.5857C14.0462 63.5537 14.0342 63.5177 14.0342 63.4777V55.3657C14.0342 55.3257 14.0462 55.2937 14.0702 55.2697C14.1022 55.2377 14.1382 55.2217 14.1782 55.2217H19.7222C19.7622 55.2217 19.7942 55.2377 19.8182 55.2697C19.8502 55.2937 19.8662 55.3257 19.8662 55.3657V56.5297Z" fill="#008949"/>
<path d="M7.25142 63.6217C7.21142 63.6217 7.17542 63.6097 7.14342 63.5857C7.11942 63.5537 7.10742 63.5177 7.10742 63.4777V55.3657C7.10742 55.3257 7.11942 55.2937 7.14342 55.2697C7.17542 55.2377 7.21142 55.2217 7.25142 55.2217H8.65542C8.69542 55.2217 8.72742 55.2377 8.75142 55.2697C8.78342 55.2937 8.79942 55.3257 8.79942 55.3657V62.1097C8.79942 62.1497 8.81942 62.1697 8.85942 62.1697H12.7834C12.8234 62.1697 12.8554 62.1857 12.8794 62.2177C12.9114 62.2417 12.9274 62.2737 12.9274 62.3137V63.4777C12.9274 63.5177 12.9114 63.5537 12.8794 63.5857C12.8554 63.6097 12.8234 63.6217 12.7834 63.6217H7.25142Z" fill="#008949"/>
</svg>
