<svg width="20" height="24" viewBox="0 0 20 24" fill="none" xmlns="http://www.w3.org/2000/svg">
<path fill-rule="evenodd" clip-rule="evenodd" d="M10.8932 0.719825C10.5584 0.385058 10.0156 0.385058 9.68086 0.719825C9.34609 1.05459 9.34609 1.59736 9.68086 1.93212L12.3454 4.59668C11.8161 4.56114 11.1425 4.54051 10.2869 4.54051C8.42192 4.54051 6.59883 5.09354 5.04816 6.12966C3.49749 7.16578 2.2889 8.63847 1.5752 10.3615C0.861507 12.0845 0.674773 13.9804 1.03861 15.8096C1.40245 17.6387 2.30052 19.3189 3.61925 20.6376C4.93799 21.9564 6.61816 22.8544 8.4473 23.2183C10.2764 23.5821 12.1724 23.3954 13.8954 22.6817C15.6184 21.968 17.0911 20.7594 18.1272 19.2087C19.1633 17.658 19.7164 15.8349 19.7164 13.97C19.7164 13.4965 19.3326 13.1128 18.8591 13.1128C18.3857 13.1128 18.0019 13.4965 18.0019 13.97C18.0019 15.4959 17.5494 16.9875 16.7017 18.2562C15.854 19.5249 14.649 20.5138 13.2393 21.0977C11.8296 21.6817 10.2783 21.8344 8.78177 21.5368C7.2852 21.2391 5.91052 20.5043 4.83155 19.4253C3.75259 18.3464 3.0178 16.9717 2.72012 15.4751C2.42243 13.9785 2.57521 12.4273 3.15915 11.0176C3.74308 9.60783 4.73193 8.40291 6.00066 7.55517C7.26939 6.70744 8.76101 6.25496 10.2869 6.25496C11.3855 6.25496 12.1325 6.29021 12.6325 6.3404L9.68086 9.29207C9.34609 9.62683 9.34609 10.1696 9.68086 10.5044C10.0156 10.8391 10.5584 10.8391 10.8932 10.5044L15.1793 6.21824C15.514 5.88348 15.514 5.34071 15.1793 5.00595L10.8932 0.719825Z" fill="#8A8A8A"/>
</svg>
