<svg width="49" height="31" viewBox="0 0 49 31" fill="none" xmlns="http://www.w3.org/2000/svg">
<g clip-path="url(#clip0_149_346)">
<path d="M0 0H48.36V31H0V0Z" fill="#F3F3F3"/>
<path d="M42.7809 15.5007C42.7809 21.647 37.7991 26.6297 31.6531 26.6297C25.5077 26.6297 20.5254 21.6473 20.5254 15.5007C20.5254 9.35391 25.5076 4.37109 31.6531 4.37109C37.7994 4.37109 42.7809 9.35385 42.7809 15.5007Z" fill="#FF9900"/>
<path d="M23.0556 22.5677C22.7475 22.1939 22.4643 21.8001 22.2078 21.389H26.1517C26.3891 21.0095 26.6032 20.6158 26.7929 20.2102H21.5668C21.3874 19.8269 21.2302 19.4336 21.0958 19.0322H27.2634C27.6345 17.9222 27.8356 16.7351 27.8356 15.5006C27.8356 14.6917 27.7493 13.9033 27.5859 13.1438H20.7745C20.8604 12.7453 20.9682 12.3519 21.0975 11.9653H27.2628C27.1282 11.564 26.971 11.1706 26.7921 10.787H21.5683C21.7582 10.3817 21.9723 9.98823 22.2092 9.60848H26.1506C25.8937 9.19817 25.6106 8.80484 25.303 8.43104H23.0571C23.4024 8.01173 23.7778 7.61803 24.1801 7.25304C22.2051 5.46223 19.5835 4.37109 16.7078 4.37109C10.562 4.37116 5.58008 9.35391 5.58008 15.5007C5.58008 21.647 10.5623 26.6297 16.7085 26.6297C19.5845 26.6297 22.2058 25.5388 24.1807 23.7483C24.5836 23.3827 24.9594 22.9881 25.3049 22.568H23.0564" fill="#CC0000"/>
<path d="M41.2965 21.702C41.2965 21.5036 41.4575 21.3427 41.6562 21.3427C41.8545 21.3428 42.0153 21.5036 42.0152 21.702C42.0152 21.9007 41.8545 22.0616 41.6562 22.0616C41.4576 22.0617 41.2965 21.9007 41.2965 21.702ZM41.6562 21.9753C41.8069 21.9754 41.9291 21.8533 41.9292 21.7027V21.702C41.9292 21.5515 41.8072 21.4295 41.6567 21.4295H41.6561C41.5055 21.4291 41.3831 21.551 41.3828 21.7017V21.702C41.3827 21.8529 41.505 21.9753 41.6558 21.9753H41.6562ZM41.6073 21.8599H41.5339V21.5442H41.6672C41.6948 21.5442 41.7232 21.5444 41.7478 21.5602C41.7736 21.5777 41.7878 21.6082 41.7878 21.639C41.7878 21.675 41.7669 21.7078 41.7333 21.7205L41.7912 21.8597H41.7096L41.6616 21.7352H41.6073V21.8599ZM41.6073 21.6814H41.6481C41.6634 21.6814 41.6795 21.6824 41.6932 21.675C41.705 21.6666 41.712 21.6529 41.7118 21.6383C41.7112 21.6255 41.7046 21.6137 41.694 21.6065C41.6808 21.5988 41.6604 21.6003 41.6467 21.6003H41.6073V21.6814ZM24.0217 18.5067C23.5461 18.6327 23.0862 18.6942 22.6 18.6933C21.049 18.6918 20.2412 17.9854 20.2412 16.6348C20.2412 15.0564 21.2695 13.8955 22.6654 13.8955C23.8073 13.8955 24.5363 14.5465 24.5363 15.5661C24.5363 15.9045 24.4869 16.2339 24.3661 16.7005H21.6078C21.5097 17.3597 21.9915 17.6495 22.8114 17.6495C23.3028 17.6495 23.7471 17.561 24.2389 17.3634L24.0217 18.5067ZM23.28 15.7693C23.28 15.6697 23.4335 14.9613 22.6352 14.9458C22.1945 14.9458 21.8783 15.2387 21.7504 15.7693H23.28ZM24.9561 15.4599C24.9561 16.043 25.2844 16.4457 26.0305 16.7456C26.6008 16.9794 26.6907 17.0468 26.6907 17.2553C26.6907 17.5444 26.4386 17.6772 25.879 17.6735C25.4588 17.6705 25.0754 17.6196 24.6227 17.494L24.4225 18.5575C24.8247 18.6508 25.389 18.6815 25.8887 18.6932C27.3782 18.6932 28.0659 18.2054 28.0659 17.1514C28.0659 16.518 27.7792 16.145 27.0719 15.8672C26.4806 15.631 26.4111 15.5796 26.4111 15.3661C26.4111 15.115 26.6454 14.9879 27.1023 14.9879C27.379 14.9879 27.7582 15.0135 28.1179 15.0565L28.3199 13.9875C27.9534 13.9364 27.3971 13.8956 27.0753 13.8956C25.4975 13.8957 24.9514 14.6061 24.9561 15.4599ZM19.4851 18.617H18.328L18.3556 18.1321C18.0028 18.5147 17.5328 18.6927 16.895 18.6927C16.1402 18.6927 15.623 18.1766 15.623 17.4344C15.623 16.3063 16.522 15.6555 18.0676 15.6555C18.2265 15.6555 18.4285 15.6674 18.6359 15.6904C18.6788 15.5395 18.6904 15.4747 18.6904 15.3923C18.6904 15.0836 18.4473 14.9699 17.7969 14.9699C17.1557 14.9725 16.723 15.0673 16.3215 15.1753L16.5192 14.1399C17.2133 13.9634 17.668 13.8955 18.1823 13.8955C19.3792 13.8955 20.0113 14.3646 20.0113 15.2469C20.0216 15.4822 19.9395 15.9545 19.8984 16.1611C19.8514 16.462 19.5197 18.2055 19.4851 18.617ZM18.4696 16.5591C18.3229 16.5441 18.259 16.5398 18.1588 16.5398C17.3696 16.5398 16.9694 16.7746 16.9694 17.2383C16.9694 17.5292 17.1647 17.7116 17.469 17.7116C18.0361 17.7116 18.4455 17.2372 18.4696 16.5591ZM30.5044 18.5438C30.1246 18.648 29.8288 18.6931 29.5087 18.6931C28.7998 18.6931 28.4128 18.3309 28.4128 17.6856C28.3907 17.5085 28.5638 16.6899 28.6029 16.462C28.6422 16.2331 29.2563 12.8975 29.2563 12.8975H30.6334L30.425 14.0011H31.1313L30.9393 15.1277H30.23C30.23 15.1277 29.8407 17.0825 29.8407 17.2316C29.8407 17.4687 29.9843 17.5718 30.314 17.5718C30.4718 17.5718 30.5936 17.5571 30.6878 17.5289L30.5044 18.5438ZM36.6576 13.8954C35.6483 13.8954 34.8596 14.3108 34.4016 15.0047L34.7991 13.9758C34.0665 13.7069 33.5942 14.0905 33.167 14.6361C33.167 14.6361 33.0954 14.7267 33.0244 14.8097V14.0006H31.7312C31.556 15.4284 31.2463 16.8761 31.004 18.3062L30.9456 18.6175H32.3368C32.4685 17.8916 32.577 17.3023 32.685 16.8327C32.9807 15.5439 33.4778 15.1499 34.2245 15.324C34.0522 15.6947 33.9575 16.1233 33.9575 16.5984C33.9575 17.7503 34.5832 18.6933 36.1368 18.6933C37.7046 18.6933 38.8398 17.8557 38.8398 15.9461C38.8398 14.7942 38.0833 13.8954 36.6576 13.8954ZM36.2528 17.573C35.7614 17.5808 35.4636 17.1685 35.4636 16.5518C35.4636 15.8208 35.8984 14.9949 36.5966 14.9949C37.16 14.9949 37.353 15.4415 37.353 15.9174C37.353 16.9577 36.9268 17.573 36.2528 17.573ZM14.9751 18.6175H13.5899L14.4132 14.2804L12.5178 18.6175H11.2551L11.024 14.3054L10.1982 18.6175H8.94141L10.012 12.9758H12.1766L12.3571 16.1208L13.7284 12.9758H16.0671L14.9751 18.6175Z" fill="black"/>
<path d="M38.9455 17.9102C38.9456 17.7119 39.1065 17.551 39.3049 17.5509C39.5035 17.5509 39.6642 17.7121 39.6642 17.9102C39.6679 18.1087 39.51 18.2726 39.3116 18.2762C39.1131 18.28 38.9492 18.1221 38.9455 17.9236C38.9454 17.9191 38.9454 17.9147 38.9455 17.9102ZM39.3049 18.1838C39.4558 18.1836 39.5782 18.0612 39.5782 17.9102C39.5782 17.7594 39.4557 17.6373 39.3049 17.6373C39.154 17.6373 39.0316 17.7595 39.0316 17.9102C39.0316 18.0612 39.1539 18.1836 39.3049 18.1838ZM39.2563 18.0681H39.1826V17.7529H39.3159C39.3438 17.7529 39.3722 17.7529 39.3968 17.7684C39.4221 17.7857 39.4368 17.8161 39.4368 17.8472C39.4368 17.883 39.4159 17.9163 39.3821 17.9288L39.44 18.0681H39.3584L39.3106 17.9434H39.2563V18.0681H39.2563ZM39.2563 17.8891H39.2971C39.3121 17.8891 39.3283 17.8901 39.342 17.883C39.3538 17.8747 39.3607 17.8611 39.3604 17.8466C39.3601 17.8338 39.3535 17.822 39.3428 17.8148C39.3297 17.8068 39.3093 17.8088 39.2955 17.8088H39.2563V17.8891ZM24.3694 18.159C23.8941 18.2851 23.434 18.3467 22.9481 18.3458C21.397 18.3442 20.5892 17.6377 20.5892 16.2869C20.5892 14.709 21.6171 13.5478 23.0132 13.5478C24.1553 13.5478 24.884 14.1985 24.884 15.2182C24.884 15.5571 24.8344 15.886 24.7142 16.3528H21.956C21.8578 17.0118 22.3391 17.3019 23.1593 17.3019C23.6506 17.3019 24.0947 17.2136 24.587 17.0157L24.3694 18.159ZM23.6277 15.4217C23.6277 15.3223 23.781 14.6137 22.9831 14.5984C22.5424 14.5984 22.2264 14.8916 22.0983 15.4217H23.6277ZM25.3041 15.112C25.3041 15.6953 25.6319 16.0978 26.3782 16.3982C26.9489 16.6318 27.0384 16.6993 27.0384 16.9074C27.0384 17.1967 26.7864 17.3296 26.227 17.3259C25.8065 17.323 25.4231 17.2719 24.9707 17.1464L24.77 18.2094C25.1725 18.3034 25.737 18.3342 26.2365 18.3458C27.7261 18.3458 28.414 17.8577 28.414 16.8037C28.414 16.1703 28.127 15.7971 27.4195 15.5196C26.8281 15.2834 26.7589 15.232 26.7589 15.0185C26.7589 14.7674 26.9935 14.6403 27.45 14.6403C27.7272 14.6403 28.1061 14.6661 28.466 14.7093L28.6675 13.64C28.3009 13.5889 27.745 13.5481 27.4235 13.5481C25.845 13.548 25.2992 14.2582 25.3041 15.112ZM19.8331 18.2696H18.6758L18.7037 17.7848C18.3505 18.1666 17.8806 18.3448 17.243 18.3448C16.4882 18.3448 15.9707 17.8286 15.9707 17.087C15.9707 15.9583 16.8694 15.3079 18.4153 15.3079C18.5742 15.3079 18.7759 15.3198 18.9839 15.3428C19.0268 15.1919 19.0382 15.1273 19.0382 15.0447C19.0382 14.7357 18.7953 14.6223 18.1449 14.6223C17.5037 14.6249 17.071 14.7199 16.6695 14.8277L16.867 13.7925C17.5613 13.6158 18.0157 13.5479 18.5303 13.5479C19.7272 13.5479 20.359 14.017 20.359 14.899C20.3694 15.1346 20.2872 15.6066 20.2464 15.8137C20.1991 16.1143 19.8675 17.8577 19.8331 18.2696ZM18.8171 16.2113C18.6709 16.1962 18.6068 16.192 18.5063 16.192C17.7176 16.192 17.3171 16.4269 17.3171 16.8906C17.3171 17.1816 17.5127 17.3639 17.8165 17.3639C18.3842 17.3638 18.7935 16.8893 18.8171 16.2113ZM30.8519 18.1965C30.4725 18.3004 30.1764 18.3458 29.8565 18.3458C29.1476 18.3458 28.7609 17.9833 28.7609 17.338C28.7385 17.1611 28.9119 16.3423 28.9508 16.1143C28.9901 15.8854 29.6041 12.5498 29.6041 12.5498H30.9811L30.7731 13.6534H31.4795L31.2875 14.78H30.5782C30.5782 14.78 30.1886 16.7349 30.1886 16.8839C30.1886 17.121 30.3325 17.2236 30.6619 17.2236C30.8195 17.2236 30.9414 17.2094 31.0357 17.1807L30.8519 18.1965ZM37.7011 15.5697C37.7011 16.6098 37.2745 17.2257 36.6002 17.2257C36.1091 17.2326 35.8112 16.8211 35.8112 16.2042C35.8112 15.4731 36.2458 14.6472 36.944 14.6472C37.5078 14.6472 37.7011 15.0944 37.7011 15.5697ZM39.1878 15.5987C39.1878 14.4468 38.4309 13.5478 37.0057 13.5478C35.3658 13.5478 34.3056 14.6405 34.3056 16.2507C34.3056 17.4025 34.9308 18.3458 36.4848 18.3458C38.0527 18.3458 39.1878 17.508 39.1878 15.5987ZM32.0788 13.6529C31.9039 15.0807 31.5942 16.5282 31.3521 17.9588L31.2934 18.2701H32.6844C33.1858 15.5075 33.354 14.7204 34.4043 14.9976L34.9096 13.6902C34.177 13.4213 33.7052 13.8052 33.2784 14.351C33.3169 14.1054 33.3895 13.8685 33.372 13.653L32.0788 13.6529ZM15.3227 18.27H13.9378L14.7608 13.9327L12.8652 18.27H11.6027L11.3717 13.9576L10.5459 18.27H9.28906L10.3594 12.628H12.5245L12.6389 16.1208L14.1626 12.628H16.4147L15.3227 18.27Z" fill="white"/>
</g>
<defs>
<clipPath id="clip0_149_346">
<rect width="48.36" height="31" fill="white"/>
</clipPath>
</defs>
</svg>
