<svg width="1127" height="137" viewBox="0 0 1127 137" fill="none" xmlns="http://www.w3.org/2000/svg">
<mask id="mask0_138_1185" style="mask-type:alpha" maskUnits="userSpaceOnUse" x="0" y="0" width="1127" height="137">
<rect x="0.806641" width="1125.62" height="136.579" rx="10" fill="#4C4C4C"/>
</mask>
<g mask="url(#mask0_138_1185)">
<path d="M1069.17 1.80027C1069.17 2.81017 1068.33 3.60054 1067.26 3.60054C1066.19 3.60054 1065.35 2.81017 1065.35 1.80027C1065.35 0.790359 1066.19 0 1067.26 0C1068.33 0 1069.17 0.790359 1069.17 1.80027Z" fill="#585858"/>
<path d="M1078.71 1.80027C1078.71 2.81017 1077.87 3.60054 1076.8 3.60054C1075.73 3.60054 1074.9 2.81017 1074.9 1.80027C1074.9 0.790359 1075.73 0 1076.8 0C1077.87 0 1078.71 0.790359 1078.71 1.80027Z" fill="#585858"/>
<path d="M1088.26 1.80027C1088.26 2.81017 1087.42 3.60054 1086.35 3.60054C1085.28 3.60054 1084.44 2.81017 1084.44 1.80027C1084.44 0.790359 1085.28 0 1086.35 0C1087.42 0 1088.26 0.790359 1088.26 1.80027Z" fill="#585858"/>
<path d="M1097.8 1.80027C1097.8 2.81017 1096.96 3.60054 1095.89 3.60054C1094.82 3.60054 1093.98 2.81017 1093.98 1.80027C1093.98 0.790359 1094.82 0 1095.89 0C1096.96 0 1097.8 0.790359 1097.8 1.80027Z" fill="#585858"/>
<path d="M1107.34 1.80027C1107.34 2.81017 1106.5 3.60054 1105.43 3.60054C1104.36 3.60054 1103.52 2.81017 1103.52 1.80027C1103.52 0.790359 1104.36 0 1105.43 0C1106.5 0 1107.34 0.790359 1107.34 1.80027Z" fill="#585858"/>
<path d="M1116.88 1.80027C1116.88 2.81017 1116.05 3.60054 1114.98 3.60054C1113.91 3.60054 1113.07 2.81017 1113.07 1.80027C1113.07 0.790359 1113.91 0 1114.98 0C1116.05 0 1116.88 0.790359 1116.88 1.80027Z" fill="#585858"/>
<path d="M1126.43 1.80027C1126.43 2.81017 1125.59 3.60054 1124.52 3.60054C1123.45 3.60054 1122.61 2.81017 1122.61 1.80027C1122.61 0.790359 1123.45 0 1124.52 0C1125.59 0 1126.43 0.790359 1126.43 1.80027Z" fill="#585858"/>
<path d="M1069.17 9.57175C1069.17 10.5817 1068.33 11.372 1067.26 11.372C1066.19 11.372 1065.35 10.5817 1065.35 9.57175C1065.35 8.56184 1066.19 7.77148 1067.26 7.77148C1068.33 7.77148 1069.17 8.56184 1069.17 9.57175Z" fill="#585858"/>
<path d="M1078.71 9.57175C1078.71 10.5817 1077.87 11.372 1076.8 11.372C1075.73 11.372 1074.9 10.5817 1074.9 9.57175C1074.9 8.56184 1075.73 7.77148 1076.8 7.77148C1077.87 7.77148 1078.71 8.56184 1078.71 9.57175Z" fill="#585858"/>
<path d="M1088.26 9.57175C1088.26 10.5817 1087.42 11.372 1086.35 11.372C1085.28 11.372 1084.44 10.5817 1084.44 9.57175C1084.44 8.56184 1085.28 7.77148 1086.35 7.77148C1087.42 7.77148 1088.26 8.56184 1088.26 9.57175Z" fill="#585858"/>
<path d="M1097.8 9.57175C1097.8 10.5817 1096.96 11.372 1095.89 11.372C1094.82 11.372 1093.98 10.5817 1093.98 9.57175C1093.98 8.56184 1094.82 7.77148 1095.89 7.77148C1096.96 7.77148 1097.8 8.56184 1097.8 9.57175Z" fill="#585858"/>
<path d="M1107.34 9.57175C1107.34 10.5817 1106.5 11.372 1105.43 11.372C1104.36 11.372 1103.52 10.5817 1103.52 9.57175C1103.52 8.56184 1104.36 7.77148 1105.43 7.77148C1106.5 7.77148 1107.34 8.56184 1107.34 9.57175Z" fill="#585858"/>
<path d="M1116.88 9.57175C1116.88 10.5817 1116.05 11.372 1114.98 11.372C1113.91 11.372 1113.07 10.5817 1113.07 9.57175C1113.07 8.56184 1113.91 7.77148 1114.98 7.77148C1116.05 7.77148 1116.88 8.56184 1116.88 9.57175Z" fill="#585858"/>
<path d="M1126.43 9.57175C1126.43 10.5817 1125.59 11.372 1124.52 11.372C1123.45 11.372 1122.61 10.5817 1122.61 9.57175C1122.61 8.56184 1123.45 7.77148 1124.52 7.77148C1125.59 7.77148 1126.43 8.56184 1126.43 9.57175Z" fill="#585858"/>
<path d="M1069.17 17.3003C1069.17 18.3102 1068.33 19.1005 1067.26 19.1005C1066.19 19.1005 1065.35 18.3102 1065.35 17.3003C1065.35 16.2904 1066.19 15.5 1067.26 15.5C1068.33 15.5439 1069.17 16.3343 1069.17 17.3003Z" fill="#585858"/>
<path d="M1078.71 17.3003C1078.71 18.3102 1077.87 19.1005 1076.8 19.1005C1075.73 19.1005 1074.9 18.3102 1074.9 17.3003C1074.9 16.2904 1075.73 15.5 1076.8 15.5C1077.87 15.5439 1078.71 16.3343 1078.71 17.3003Z" fill="#585858"/>
<path d="M1088.26 17.3003C1088.26 18.3102 1087.42 19.1005 1086.35 19.1005C1085.28 19.1005 1084.44 18.3102 1084.44 17.3003C1084.44 16.2904 1085.28 15.5 1086.35 15.5C1087.42 15.5439 1088.26 16.3343 1088.26 17.3003Z" fill="#585858"/>
<path d="M1097.8 17.3003C1097.8 18.3102 1096.96 19.1005 1095.89 19.1005C1094.82 19.1005 1093.98 18.3102 1093.98 17.3003C1093.98 16.2904 1094.82 15.5 1095.89 15.5C1096.96 15.5439 1097.8 16.3343 1097.8 17.3003Z" fill="#585858"/>
<path d="M1107.34 17.3003C1107.34 18.3102 1106.5 19.1005 1105.43 19.1005C1104.36 19.1005 1103.52 18.3102 1103.52 17.3003C1103.52 16.2904 1104.36 15.5 1105.43 15.5C1106.5 15.5439 1107.34 16.3343 1107.34 17.3003Z" fill="#585858"/>
<path d="M1116.88 17.3003C1116.88 18.3102 1116.05 19.1005 1114.98 19.1005C1113.91 19.1005 1113.07 18.3102 1113.07 17.3003C1113.07 16.2904 1113.91 15.5 1114.98 15.5C1116.05 15.5439 1116.88 16.3343 1116.88 17.3003Z" fill="#585858"/>
<path d="M1126.43 17.3003C1126.43 18.3102 1125.59 19.1005 1124.52 19.1005C1123.45 19.1005 1122.61 18.3102 1122.61 17.3003C1122.61 16.2904 1123.45 15.5 1124.52 15.5C1125.59 15.5439 1126.43 16.3343 1126.43 17.3003Z" fill="#585858"/>
<path d="M1069.17 25.0718C1069.17 26.0817 1068.33 26.872 1067.26 26.872C1066.19 26.872 1065.35 26.0817 1065.35 25.0718C1065.35 24.0618 1066.19 23.2715 1067.26 23.2715C1068.33 23.2715 1069.17 24.1058 1069.17 25.0718Z" fill="#585858"/>
<path d="M1078.71 25.0718C1078.71 26.0817 1077.87 26.872 1076.8 26.872C1075.73 26.872 1074.9 26.0817 1074.9 25.0718C1074.9 24.0618 1075.73 23.2715 1076.8 23.2715C1077.87 23.2715 1078.71 24.1058 1078.71 25.0718Z" fill="#585858"/>
<path d="M1088.26 25.0718C1088.26 26.0817 1087.42 26.872 1086.35 26.872C1085.28 26.872 1084.44 26.0817 1084.44 25.0718C1084.44 24.0618 1085.28 23.2715 1086.35 23.2715C1087.42 23.2715 1088.26 24.1058 1088.26 25.0718Z" fill="#585858"/>
<path d="M1097.8 25.0718C1097.8 26.0817 1096.96 26.872 1095.89 26.872C1094.82 26.872 1093.98 26.0817 1093.98 25.0718C1093.98 24.0618 1094.82 23.2715 1095.89 23.2715C1096.96 23.2715 1097.8 24.1058 1097.8 25.0718Z" fill="#585858"/>
<path d="M1107.34 25.0718C1107.34 26.0817 1106.5 26.872 1105.43 26.872C1104.36 26.872 1103.52 26.0817 1103.52 25.0718C1103.52 24.0618 1104.36 23.2715 1105.43 23.2715C1106.5 23.2715 1107.34 24.1058 1107.34 25.0718Z" fill="#585858"/>
<path d="M1116.88 25.0718C1116.88 26.0817 1116.05 26.872 1114.98 26.872C1113.91 26.872 1113.07 26.0817 1113.07 25.0718C1113.07 24.0618 1113.91 23.2715 1114.98 23.2715C1116.05 23.2715 1116.88 24.1058 1116.88 25.0718Z" fill="#585858"/>
<path d="M1126.43 25.0718C1126.43 26.0817 1125.59 26.872 1124.52 26.872C1123.45 26.872 1122.61 26.0817 1122.61 25.0718C1122.61 24.0618 1123.45 23.2715 1124.52 23.2715C1125.59 23.2715 1126.43 24.1058 1126.43 25.0718Z" fill="#585858"/>
<path opacity="0.29" d="M86.5735 118.227C84.7888 115.127 81.4841 113.216 77.9069 113.216H59.9162C56.339 113.216 53.0342 115.127 51.2496 118.227L42.2099 133.93C40.432 137.018 40.432 140.82 42.2098 143.908L51.2496 159.611C53.0342 162.712 56.339 164.622 59.9162 164.622H77.9069C81.4841 164.622 84.7888 162.712 86.5735 159.611L95.6132 143.908C97.391 140.82 97.391 137.018 95.6132 133.93L86.5735 118.227Z" fill="#3E3E3E"/>
<g opacity="0.29">
<path d="M90.4249 166.295C88.6402 169.394 85.3357 171.305 81.7588 171.305H56.0492C52.4707 171.305 49.165 169.393 47.3808 166.291L34.5037 143.903C32.7287 140.817 32.7282 137.02 34.5025 133.934L47.3813 111.53C49.1651 108.427 52.4715 106.514 56.0509 106.514H81.7571C85.3349 106.514 88.6401 108.425 90.4245 111.526L103.316 133.93C105.094 137.018 105.093 140.819 103.315 143.907L90.4249 166.295ZM49.0127 163.471C50.7965 166.574 54.103 168.487 57.6824 168.487H80.1259C83.7036 168.487 87.0087 166.576 88.7932 163.475L100.054 143.907C101.831 140.819 101.831 137.019 100.054 133.931L88.7932 114.363C87.0087 111.262 83.7036 109.351 80.1259 109.351H57.6824C54.103 109.351 50.7965 111.264 49.0127 114.367L37.7642 133.935C35.9905 137.021 35.9905 140.817 37.7642 143.902L49.0127 163.471Z" fill="#3E3E3E"/>
</g>
<path opacity="0.29" d="M1036.5 115.152C1034.66 112.261 1031.48 110.51 1028.05 110.51H1005.34C1001.92 110.51 998.734 112.261 996.9 115.152L986.369 131.749C984.294 135.018 984.294 139.191 986.367 142.461L996.9 159.073C998.734 161.966 1001.92 163.719 1005.35 163.719H1028.05C1031.48 163.719 1034.66 161.966 1036.5 159.073L1047.03 142.461C1049.1 139.191 1049.1 135.018 1047.03 131.749L1036.5 115.152Z" fill="#353535"/>
<g opacity="0.29">
<path d="M1040.89 166.008C1039.05 168.903 1035.87 170.658 1032.44 170.658H1000.94C997.509 170.658 994.321 168.903 992.488 166.008L977.575 142.454C975.506 139.187 975.506 135.021 977.575 131.755L992.488 108.201C994.321 105.306 997.509 103.551 1000.94 103.551H1032.44C1035.87 103.551 1039.05 105.306 1040.89 108.201L1055.8 131.755C1057.87 135.021 1057.87 139.187 1055.8 142.454L1040.89 166.008ZM994.348 163.074C996.181 165.967 999.368 167.721 1002.79 167.721H1030.58C1034.01 167.721 1037.19 165.967 1039.03 163.074L1052.09 142.458C1054.17 139.19 1054.17 135.019 1052.09 131.751L1039.03 111.135C1037.19 108.241 1034.01 106.488 1030.58 106.488H1002.79C999.368 106.488 996.181 108.241 994.348 111.135L981.28 131.751C979.209 135.019 979.209 139.19 981.28 142.458L994.348 163.074Z" fill="#353535"/>
</g>
<path opacity="0.29" d="M216.151 -18.3945C214.316 -21.2799 211.133 -23.0273 207.713 -23.0273H185.868C182.446 -23.0273 179.261 -21.2771 177.426 -18.388L167.375 -2.55879C165.297 0.712993 165.297 4.89065 167.375 8.16243L177.426 23.9916C179.261 26.8807 182.446 28.631 185.868 28.631H207.713C211.133 28.631 214.316 26.8835 216.151 23.9982L226.22 8.16899C228.303 4.89408 228.303 0.70956 226.22 -2.56535L216.151 -18.3945Z" fill="#4F5152"/>
<g opacity="0.29">
<path d="M220.434 30.7257C218.599 33.614 215.415 35.3635 211.993 35.3635H181.612C178.19 35.3635 175.006 33.614 173.171 30.7257L158.838 8.16405C156.759 4.89152 156.759 0.712236 158.838 -2.56029L173.171 -25.1219C175.006 -28.0102 178.19 -29.7598 181.612 -29.7598H211.993C215.415 -29.7598 218.599 -28.0102 220.434 -25.1219L234.767 -2.56029C236.846 0.71224 236.846 4.89153 234.767 8.16405L220.434 30.7257ZM174.974 27.8589C176.809 30.747 179.993 32.4965 183.415 32.4965H210.19C213.611 32.4965 216.796 30.747 218.63 27.8589L231.159 8.13875C233.238 4.86608 233.238 0.686484 231.159 -2.58618L218.63 -22.3064C216.796 -25.1945 213.611 -26.9439 210.19 -26.9439H183.415C179.993 -26.9439 176.809 -25.1944 174.974 -22.3064L162.446 -2.58618C160.367 0.686489 160.367 4.86608 162.446 8.13875L174.974 27.8589Z" fill="#4F5152"/>
</g>
<path d="M382.812 143.407C382.493 144.162 381.753 144.653 380.934 144.653V144.653C379.473 144.653 378.486 143.161 379.057 141.816L385.945 125.609C386.262 124.863 386.994 124.379 387.805 124.379V124.379C389.251 124.379 390.229 125.854 389.666 127.186L382.812 143.407Z" fill="#4C4C4C"/>
<path d="M392.638 143.407C392.319 144.162 391.579 144.653 390.76 144.653V144.653C389.299 144.653 388.312 143.161 388.883 141.816L395.772 125.609C396.089 124.863 396.821 124.379 397.631 124.379V124.379C399.077 124.379 400.055 125.854 399.492 127.186L392.638 143.407Z" fill="#4C4C4C"/>
<path d="M402.465 143.405C402.146 144.161 401.405 144.653 400.584 144.653V144.653C399.122 144.653 398.134 143.162 398.703 141.815L405.543 125.626C405.863 124.87 406.604 124.379 407.424 124.379V124.379C408.886 124.379 409.875 125.87 409.306 127.216L402.465 143.405Z" fill="#4C4C4C"/>
<path d="M412.291 143.405C411.972 144.161 411.231 144.653 410.41 144.653V144.653C408.948 144.653 407.96 143.162 408.529 141.815L415.369 125.626C415.689 124.87 416.43 124.379 417.251 124.379V124.379C418.712 124.379 419.701 125.87 419.132 127.216L412.291 143.405Z" fill="#4C4C4C"/>
<path d="M422.118 143.405C421.798 144.161 421.057 144.653 420.236 144.653V144.653C418.775 144.653 417.786 143.162 418.355 141.815L425.195 125.626C425.515 124.87 426.256 124.379 427.077 124.379V124.379C428.538 124.379 429.527 125.87 428.958 127.216L422.118 143.405Z" fill="#4C4C4C"/>
<path d="M431.944 143.405C431.624 144.161 430.883 144.653 430.062 144.653V144.653C428.601 144.653 427.612 143.162 428.181 141.815L435.022 125.626C435.341 124.87 436.082 124.379 436.903 124.379V124.379C438.365 124.379 439.353 125.87 438.784 127.216L431.944 143.405Z" fill="#4C4C4C"/>
<path d="M441.768 143.405C441.449 144.161 440.707 144.653 439.887 144.653V144.653C438.425 144.653 437.437 143.162 438.005 141.815L444.846 125.626C445.165 124.87 445.906 124.379 446.727 124.379V124.379C448.189 124.379 449.177 125.87 448.608 127.216L441.768 143.405Z" fill="#4C4C4C"/>
</g>
</svg>
