<svg width="79" height="62" viewBox="0 0 79 62" fill="none" xmlns="http://www.w3.org/2000/svg">
<path fill-rule="evenodd" clip-rule="evenodd" d="M38.4999 38.2439C48.5084 38.2439 56.6218 30.1304 56.6218 20.1219C56.6218 10.1135 48.5084 2 38.4999 2C28.4914 2 20.3779 10.1135 20.3779 20.1219C20.3779 30.1304 28.4914 38.2439 38.4999 38.2439ZM38.4999 40.2439C49.6129 40.2439 58.6218 31.235 58.6218 20.1219C58.6218 9.0089 49.6129 0 38.4999 0C27.3868 0 18.3779 9.0089 18.3779 20.1219C18.3779 31.235 27.3868 40.2439 38.4999 40.2439Z" fill="#008949"/>
<path fill-rule="evenodd" clip-rule="evenodd" d="M28.7236 20.1211C28.7236 19.5688 29.1713 19.1211 29.7236 19.1211H47.2754C47.8277 19.1211 48.2754 19.5688 48.2754 20.1211C48.2754 20.6734 47.8277 21.1211 47.2754 21.1211H29.7236C29.1713 21.1211 28.7236 20.6734 28.7236 20.1211Z" fill="#008949"/>
<path fill-rule="evenodd" clip-rule="evenodd" d="M38.5 29.8984C37.9477 29.8984 37.5 29.4507 37.5 28.8984V11.3466C37.5 10.7944 37.9477 10.3466 38.5 10.3466C39.0523 10.3466 39.5 10.7944 39.5 11.3466V28.8984C39.5 29.4507 39.0523 29.8984 38.5 29.8984Z" fill="#008949"/>
<path d="M75.1517 61.719C74.5117 61.719 73.9517 61.619 73.4717 61.419C72.9917 61.211 72.6197 60.919 72.3557 60.543C72.0997 60.159 71.9717 59.715 71.9717 59.211V58.947C71.9717 58.907 71.9837 58.875 72.0077 58.851C72.0397 58.819 72.0757 58.803 72.1157 58.803H73.4837C73.5237 58.803 73.5557 58.819 73.5797 58.851C73.6117 58.875 73.6277 58.907 73.6277 58.947V59.127C73.6277 59.447 73.7757 59.719 74.0717 59.943C74.3677 60.159 74.7677 60.267 75.2717 60.267C75.6957 60.267 76.0117 60.179 76.2197 60.003C76.4277 59.819 76.5317 59.595 76.5317 59.331C76.5317 59.139 76.4677 58.979 76.3397 58.851C76.2117 58.715 76.0357 58.599 75.8117 58.503C75.5957 58.399 75.2477 58.259 74.7677 58.083C74.2317 57.899 73.7757 57.711 73.3997 57.519C73.0317 57.327 72.7197 57.067 72.4637 56.739C72.2157 56.403 72.0917 55.991 72.0917 55.503C72.0917 55.023 72.2157 54.603 72.4637 54.243C72.7117 53.883 73.0557 53.607 73.4957 53.415C73.9357 53.223 74.4437 53.127 75.0197 53.127C75.6277 53.127 76.1677 53.235 76.6397 53.451C77.1197 53.667 77.4917 53.971 77.7557 54.363C78.0277 54.747 78.1637 55.195 78.1637 55.707V55.887C78.1637 55.927 78.1477 55.963 78.1157 55.995C78.0917 56.019 78.0597 56.031 78.0197 56.031H76.6397C76.5997 56.031 76.5637 56.019 76.5317 55.995C76.5077 55.963 76.4957 55.927 76.4957 55.887V55.791C76.4957 55.455 76.3557 55.171 76.0757 54.939C75.8037 54.699 75.4277 54.579 74.9477 54.579C74.5717 54.579 74.2757 54.659 74.0597 54.819C73.8517 54.979 73.7477 55.199 73.7477 55.479C73.7477 55.679 73.8077 55.847 73.9277 55.983C74.0557 56.119 74.2397 56.243 74.4797 56.355C74.7277 56.459 75.1077 56.603 75.6197 56.787C76.1877 56.995 76.6317 57.179 76.9517 57.339C77.2797 57.499 77.5717 57.739 77.8277 58.059C78.0917 58.371 78.2237 58.779 78.2237 59.283C78.2237 60.035 77.9477 60.631 77.3957 61.071C76.8437 61.503 76.0957 61.719 75.1517 61.719Z" fill="#008949"/>
<path d="M65.4877 61.6227C65.4477 61.6227 65.4117 61.6107 65.3797 61.5867C65.3557 61.5547 65.3438 61.5187 65.3438 61.4787V53.3667C65.3438 53.3267 65.3557 53.2947 65.3797 53.2707C65.4117 53.2387 65.4477 53.2227 65.4877 53.2227H66.8917C66.9317 53.2227 66.9637 53.2387 66.9877 53.2707C67.0197 53.2947 67.0358 53.3267 67.0358 53.3667V60.1107C67.0358 60.1507 67.0557 60.1707 67.0957 60.1707H71.0197C71.0597 60.1707 71.0917 60.1867 71.1157 60.2187C71.1477 60.2427 71.1637 60.2747 71.1637 60.3147V61.4787C71.1637 61.5187 71.1477 61.5547 71.1157 61.5867C71.0917 61.6107 71.0597 61.6227 71.0197 61.6227H65.4877Z" fill="#008949"/>
<path d="M62.2758 61.6227C62.2358 61.6227 62.1998 61.6107 62.1678 61.5867C62.1438 61.5547 62.1318 61.5187 62.1318 61.4787V53.3667C62.1318 53.3267 62.1438 53.2947 62.1678 53.2707C62.1998 53.2387 62.2358 53.2227 62.2758 53.2227H63.6798C63.7198 53.2227 63.7518 53.2387 63.7758 53.2707C63.8078 53.2947 63.8238 53.3267 63.8238 53.3667V61.4787C63.8238 61.5187 63.8078 61.5547 63.7758 61.5867C63.7518 61.6107 63.7198 61.6227 63.6798 61.6227H62.2758Z" fill="#008949"/>
<path d="M59.3608 61.6227C59.2808 61.6227 59.2288 61.5827 59.2048 61.5027L58.8448 60.3267C58.8288 60.2947 58.8088 60.2787 58.7848 60.2787H55.8328C55.8088 60.2787 55.7888 60.2947 55.7728 60.3267L55.4248 61.5027C55.4008 61.5827 55.3488 61.6227 55.2688 61.6227H53.7448C53.6968 61.6227 53.6608 61.6107 53.6368 61.5867C53.6128 61.5547 53.6088 61.5107 53.6248 61.4547L56.2168 53.3427C56.2408 53.2627 56.2928 53.2227 56.3728 53.2227H58.2568C58.3368 53.2227 58.3888 53.2627 58.4128 53.3427L61.0048 61.4547C61.0128 61.4707 61.0168 61.4907 61.0168 61.5147C61.0168 61.5867 60.9728 61.6227 60.8848 61.6227H59.3608ZM56.2048 58.8987C56.1968 58.9467 56.2128 58.9707 56.2528 58.9707H58.3648C58.4128 58.9707 58.4288 58.9467 58.4128 58.8987L57.3328 55.3347C57.3248 55.3027 57.3128 55.2907 57.2968 55.2987C57.2808 55.2987 57.2688 55.3107 57.2608 55.3347L56.2048 58.8987Z" fill="#008949"/>
<path d="M53.5113 53.2227C53.5513 53.2227 53.5833 53.2387 53.6073 53.2707C53.6393 53.2947 53.6553 53.3267 53.6553 53.3667V54.5427C53.6553 54.5827 53.6393 54.6187 53.6073 54.6507C53.5833 54.6747 53.5513 54.6867 53.5113 54.6867H51.3633C51.3233 54.6867 51.3033 54.7067 51.3033 54.7467V61.4787C51.3033 61.5187 51.2873 61.5547 51.2553 61.5867C51.2313 61.6107 51.1993 61.6227 51.1593 61.6227H49.7553C49.7153 61.6227 49.6793 61.6107 49.6473 61.5867C49.6233 61.5547 49.6113 61.5187 49.6113 61.4787V54.7467C49.6113 54.7067 49.5913 54.6867 49.5513 54.6867H47.4633C47.4233 54.6867 47.3873 54.6747 47.3553 54.6507C47.3313 54.6187 47.3193 54.5827 47.3193 54.5427V53.3667C47.3193 53.3267 47.3313 53.2947 47.3553 53.2707C47.3873 53.2387 47.4233 53.2227 47.4633 53.2227H53.5113Z" fill="#008949"/>
<path d="M46.4795 54.5307C46.4795 54.5707 46.4635 54.6067 46.4315 54.6387C46.4075 54.6627 46.3755 54.6747 46.3355 54.6747H42.3995C42.3595 54.6747 42.3395 54.6947 42.3395 54.7347V56.5947C42.3395 56.6347 42.3595 56.6547 42.3995 56.6547H44.9795C45.0195 56.6547 45.0515 56.6707 45.0755 56.7027C45.1075 56.7267 45.1235 56.7587 45.1235 56.7987V57.9627C45.1235 58.0027 45.1075 58.0387 45.0755 58.0707C45.0515 58.0947 45.0195 58.1067 44.9795 58.1067H42.3995C42.3595 58.1067 42.3395 58.1267 42.3395 58.1667V60.1107C42.3395 60.1507 42.3595 60.1707 42.3995 60.1707H46.3355C46.3755 60.1707 46.4075 60.1867 46.4315 60.2187C46.4635 60.2427 46.4795 60.2747 46.4795 60.3147V61.4787C46.4795 61.5187 46.4635 61.5547 46.4315 61.5867C46.4075 61.6107 46.3755 61.6227 46.3355 61.6227H40.7915C40.7515 61.6227 40.7155 61.6107 40.6835 61.5867C40.6595 61.5547 40.6475 61.5187 40.6475 61.4787V53.3667C40.6475 53.3267 40.6595 53.2947 40.6835 53.2707C40.7155 53.2387 40.7515 53.2227 40.7915 53.2227H46.3355C46.3755 53.2227 46.4075 53.2387 46.4315 53.2707C46.4635 53.2947 46.4795 53.3267 46.4795 53.3667V54.5307Z" fill="#008949"/>
<path d="M33.3129 61.6227C33.2729 61.6227 33.2369 61.6107 33.2049 61.5867C33.1809 61.5547 33.1689 61.5187 33.1689 61.4787V53.3667C33.1689 53.3267 33.1809 53.2947 33.2049 53.2707C33.2369 53.2387 33.2729 53.2227 33.3129 53.2227H36.3129C36.9129 53.2227 37.4369 53.3307 37.8849 53.5467C38.3409 53.7547 38.6929 54.0507 38.9409 54.4347C39.1889 54.8187 39.3129 55.2627 39.3129 55.7667V59.0787C39.3129 59.5827 39.1889 60.0267 38.9409 60.4107C38.6929 60.7947 38.3409 61.0947 37.8849 61.3107C37.4369 61.5187 36.9129 61.6227 36.3129 61.6227H33.3129ZM34.8609 60.1107C34.8609 60.1507 34.8809 60.1707 34.9209 60.1707H36.3729C36.7409 60.1707 37.0369 60.0467 37.2609 59.7987C37.4929 59.5507 37.6129 59.2187 37.6209 58.8027V56.0427C37.6209 55.6267 37.5049 55.2947 37.2729 55.0467C37.0489 54.7987 36.7449 54.6747 36.3609 54.6747H34.9209C34.8809 54.6747 34.8609 54.6947 34.8609 54.7347V60.1107Z" fill="#008949"/>
<path d="M29.4707 54.5307C29.4707 54.5707 29.4547 54.6067 29.4227 54.6387C29.3987 54.6627 29.3667 54.6747 29.3267 54.6747H25.3907C25.3507 54.6747 25.3307 54.6947 25.3307 54.7347V56.5947C25.3307 56.6347 25.3507 56.6547 25.3907 56.6547H27.9707C28.0107 56.6547 28.0427 56.6707 28.0667 56.7027C28.0987 56.7267 28.1147 56.7587 28.1147 56.7987V57.9627C28.1147 58.0027 28.0987 58.0387 28.0667 58.0707C28.0427 58.0947 28.0107 58.1067 27.9707 58.1067H25.3907C25.3507 58.1067 25.3307 58.1267 25.3307 58.1667V60.1107C25.3307 60.1507 25.3507 60.1707 25.3907 60.1707H29.3267C29.3667 60.1707 29.3987 60.1867 29.4227 60.2187C29.4547 60.2427 29.4707 60.2747 29.4707 60.3147V61.4787C29.4707 61.5187 29.4547 61.5547 29.4227 61.5867C29.3987 61.6107 29.3667 61.6227 29.3267 61.6227H23.7827C23.7427 61.6227 23.7067 61.6107 23.6747 61.5867C23.6507 61.5547 23.6387 61.5187 23.6387 61.4787V53.3667C23.6387 53.3267 23.6507 53.2947 23.6747 53.2707C23.7067 53.2387 23.7427 53.2227 23.7827 53.2227H29.3267C29.3667 53.2227 29.3987 53.2387 29.4227 53.2707C29.4547 53.2947 29.4707 53.3267 29.4707 53.3667V54.5307Z" fill="#008949"/>
<path d="M20.816 61.6227C20.736 61.6227 20.68 61.5867 20.648 61.5147L19.148 58.1907C19.132 58.1587 19.108 58.1427 19.076 58.1427H17.96C17.92 58.1427 17.9 58.1627 17.9 58.2027V61.4787C17.9 61.5187 17.884 61.5547 17.852 61.5867C17.828 61.6107 17.796 61.6227 17.756 61.6227H16.352C16.312 61.6227 16.276 61.6107 16.244 61.5867C16.22 61.5547 16.208 61.5187 16.208 61.4787V53.3667C16.208 53.3267 16.22 53.2947 16.244 53.2707C16.276 53.2387 16.312 53.2227 16.352 53.2227H19.784C20.296 53.2227 20.744 53.3267 21.128 53.5347C21.52 53.7427 21.82 54.0387 22.028 54.4227C22.244 54.8067 22.352 55.2507 22.352 55.7547C22.352 56.2987 22.216 56.7667 21.944 57.1587C21.672 57.5427 21.292 57.8147 20.804 57.9747C20.764 57.9907 20.752 58.0187 20.768 58.0587L22.4 61.4547C22.416 61.4867 22.424 61.5107 22.424 61.5267C22.424 61.5907 22.38 61.6227 22.292 61.6227H20.816ZM17.96 54.6747C17.92 54.6747 17.9 54.6947 17.9 54.7347V56.7867C17.9 56.8267 17.92 56.8467 17.96 56.8467H19.532C19.868 56.8467 20.14 56.7467 20.348 56.5467C20.564 56.3467 20.672 56.0867 20.672 55.7667C20.672 55.4467 20.564 55.1867 20.348 54.9867C20.14 54.7787 19.868 54.6747 19.532 54.6747H17.96Z" fill="#008949"/>
<path d="M11.6824 61.755C11.0584 61.755 10.5064 61.627 10.0264 61.371C9.55437 61.115 9.18637 60.759 8.92237 60.303C8.65837 59.839 8.52637 59.307 8.52637 58.707V56.139C8.52637 55.547 8.65837 55.023 8.92237 54.567C9.18637 54.111 9.55437 53.759 10.0264 53.511C10.5064 53.255 11.0584 53.127 11.6824 53.127C12.3144 53.127 12.8664 53.255 13.3384 53.511C13.8184 53.759 14.1904 54.111 14.4544 54.567C14.7184 55.023 14.8504 55.547 14.8504 56.139V58.707C14.8504 59.307 14.7184 59.839 14.4544 60.303C14.1904 60.767 13.8184 61.127 13.3384 61.383C12.8664 61.631 12.3144 61.755 11.6824 61.755ZM11.6824 60.303C12.1224 60.303 12.4784 60.163 12.7504 59.883C13.0224 59.603 13.1584 59.231 13.1584 58.767V56.127C13.1584 55.663 13.0224 55.291 12.7504 55.011C12.4864 54.723 12.1304 54.579 11.6824 54.579C11.2424 54.579 10.8864 54.723 10.6144 55.011C10.3504 55.291 10.2184 55.663 10.2184 56.127V58.767C10.2184 59.231 10.3504 59.603 10.6144 59.883C10.8864 60.163 11.2424 60.303 11.6824 60.303Z" fill="#008949"/>
<path d="M5.45664 53.3187C5.49664 53.2547 5.55264 53.2227 5.62464 53.2227H7.02864C7.06864 53.2227 7.10064 53.2387 7.12464 53.2707C7.15664 53.2947 7.17264 53.3267 7.17264 53.3667V61.4787C7.17264 61.5187 7.15664 61.5547 7.12464 61.5867C7.10064 61.6107 7.06864 61.6227 7.02864 61.6227H5.62464C5.58464 61.6227 5.54864 61.6107 5.51664 61.5867C5.49264 61.5547 5.48064 61.5187 5.48064 61.4787V56.1867C5.48064 56.1547 5.47264 56.1387 5.45664 56.1387C5.44064 56.1387 5.42464 56.1507 5.40864 56.1747L4.13664 58.1667C4.09664 58.2307 4.04064 58.2627 3.96864 58.2627H3.26064C3.18864 58.2627 3.13264 58.2307 3.09264 58.1667L1.82064 56.1747C1.80464 56.1507 1.78864 56.1427 1.77264 56.1507C1.75664 56.1507 1.74864 56.1667 1.74864 56.1987V61.4787C1.74864 61.5187 1.73264 61.5547 1.70064 61.5867C1.67664 61.6107 1.64464 61.6227 1.60464 61.6227H0.200641C0.160641 61.6227 0.124641 61.6107 0.0926405 61.5867C0.0686405 61.5547 0.0566406 61.5187 0.0566406 61.4787V53.3667C0.0566406 53.3267 0.0686405 53.2947 0.0926405 53.2707C0.124641 53.2387 0.160641 53.2227 0.200641 53.2227H1.60464C1.67664 53.2227 1.73264 53.2547 1.77264 53.3187L3.57264 56.1147C3.59664 56.1627 3.62064 56.1627 3.64464 56.1147L5.45664 53.3187Z" fill="#008949"/>
</svg>
