<svg width="70" height="70" viewBox="0 0 70 70" fill="none" xmlns="http://www.w3.org/2000/svg">
<rect width="70" height="70" fill="white"/>
<path fill-rule="evenodd" clip-rule="evenodd" d="M35.1219 40.2439C45.1304 40.2439 53.2439 32.1304 53.2439 22.1219C53.2439 12.1135 45.1304 4 35.1219 4C25.1135 4 17 12.1135 17 22.1219C17 32.1304 25.1135 40.2439 35.1219 40.2439ZM35.1219 42.2439C46.235 42.2439 55.2439 33.235 55.2439 22.1219C55.2439 11.0089 46.235 2 35.1219 2C24.0089 2 15 11.0089 15 22.1219C15 33.235 24.0089 42.2439 35.1219 42.2439Z" fill="#008949"/>
<path fill-rule="evenodd" clip-rule="evenodd" d="M25.3457 22.1221C25.3457 21.5698 25.7934 21.1221 26.3457 21.1221H43.8975C44.4498 21.1221 44.8975 21.5698 44.8975 22.1221C44.8975 22.6744 44.4498 23.1221 43.8975 23.1221H26.3457C25.7934 23.1221 25.3457 22.6744 25.3457 22.1221Z" fill="#008949"/>
<path fill-rule="evenodd" clip-rule="evenodd" d="M35.1211 31.8975C34.5688 31.8975 34.1211 31.4497 34.1211 30.8975V13.3457C34.1211 12.7934 34.5688 12.3457 35.1211 12.3457C35.6734 12.3457 36.1211 12.7934 36.1211 13.3457V30.8975C36.1211 31.4497 35.6734 31.8975 35.1211 31.8975Z" fill="#008949"/>
<path d="M60.0222 63.754C59.3982 63.754 58.8462 63.626 58.3662 63.37C57.8942 63.114 57.5262 62.758 57.2622 62.302C56.9982 61.838 56.8662 61.306 56.8662 60.706V58.138C56.8662 57.546 56.9982 57.022 57.2622 56.566C57.5262 56.11 57.8942 55.758 58.3662 55.51C58.8462 55.254 59.3982 55.126 60.0222 55.126C60.6542 55.126 61.2062 55.254 61.6782 55.51C62.1582 55.758 62.5302 56.11 62.7942 56.566C63.0582 57.022 63.1902 57.546 63.1902 58.138V60.706C63.1902 61.306 63.0582 61.838 62.7942 62.302C62.5302 62.766 62.1582 63.126 61.6782 63.382C61.2062 63.63 60.6542 63.754 60.0222 63.754ZM60.0222 62.302C60.4622 62.302 60.8182 62.162 61.0902 61.882C61.3622 61.602 61.4982 61.23 61.4982 60.766V58.126C61.4982 57.662 61.3622 57.29 61.0902 57.01C60.8262 56.722 60.4702 56.578 60.0222 56.578C59.5822 56.578 59.2262 56.722 58.9542 57.01C58.6902 57.29 58.5582 57.662 58.5582 58.126V60.766C58.5582 61.23 58.6902 61.602 58.9542 61.882C59.2262 62.162 59.5822 62.302 60.0222 62.302Z" fill="#008949"/>
<path d="M56.0915 56.5297C56.0915 56.5697 56.0755 56.6057 56.0435 56.6377C56.0195 56.6617 55.9875 56.6737 55.9475 56.6737H52.0235C51.9835 56.6737 51.9635 56.6937 51.9635 56.7337V58.5937C51.9635 58.6337 51.9835 58.6537 52.0235 58.6537H54.6035C54.6435 58.6537 54.6755 58.6697 54.6995 58.7017C54.7315 58.7257 54.7475 58.7577 54.7475 58.7977V59.9617C54.7475 60.0017 54.7315 60.0377 54.6995 60.0697C54.6755 60.0937 54.6435 60.1057 54.6035 60.1057H52.0235C51.9835 60.1057 51.9635 60.1257 51.9635 60.1657V63.4777C51.9635 63.5177 51.9475 63.5537 51.9155 63.5857C51.8915 63.6097 51.8595 63.6217 51.8195 63.6217H50.4155C50.3755 63.6217 50.3395 63.6097 50.3075 63.5857C50.2835 63.5537 50.2715 63.5177 50.2715 63.4777V55.3657C50.2715 55.3257 50.2835 55.2937 50.3075 55.2697C50.3395 55.2377 50.3755 55.2217 50.4155 55.2217H55.9475C55.9875 55.2217 56.0195 55.2377 56.0435 55.2697C56.0755 55.2937 56.0915 55.3257 56.0915 55.3657V56.5297Z" fill="#008949"/>
<path d="M47.1248 55.3657C47.1248 55.3257 47.1368 55.2937 47.1608 55.2697C47.1928 55.2377 47.2288 55.2217 47.2688 55.2217H48.6728C48.7128 55.2217 48.7448 55.2377 48.7688 55.2697C48.8008 55.2937 48.8168 55.3257 48.8168 55.3657V63.4777C48.8168 63.5177 48.8008 63.5537 48.7688 63.5857C48.7448 63.6097 48.7128 63.6217 48.6728 63.6217H47.3168C47.2368 63.6217 47.1808 63.5897 47.1488 63.5257L44.0408 58.3897C44.0248 58.3657 44.0088 58.3577 43.9928 58.3657C43.9768 58.3657 43.9688 58.3817 43.9688 58.4137L43.9928 63.4777C43.9928 63.5177 43.9768 63.5537 43.9448 63.5857C43.9208 63.6097 43.8888 63.6217 43.8488 63.6217H42.4448C42.4048 63.6217 42.3688 63.6097 42.3368 63.5857C42.3128 63.5537 42.3008 63.5177 42.3008 63.4777V55.3657C42.3008 55.3257 42.3128 55.2937 42.3368 55.2697C42.3688 55.2377 42.4048 55.2217 42.4448 55.2217H43.8008C43.8808 55.2217 43.9368 55.2537 43.9688 55.3177L47.0648 60.4297C47.0808 60.4537 47.0968 60.4657 47.1128 60.4657C47.1288 60.4577 47.1368 60.4377 47.1368 60.4057L47.1248 55.3657Z" fill="#008949"/>
<path d="M39.2329 63.6217C39.1929 63.6217 39.1569 63.6097 39.1249 63.5857C39.1009 63.5537 39.0889 63.5177 39.0889 63.4777V55.3657C39.0889 55.3257 39.1009 55.2937 39.1249 55.2697C39.1569 55.2377 39.1929 55.2217 39.2329 55.2217H40.6369C40.6769 55.2217 40.7089 55.2377 40.7329 55.2697C40.7649 55.2937 40.7809 55.3257 40.7809 55.3657V63.4777C40.7809 63.5177 40.7649 63.5537 40.7329 63.5857C40.7089 63.6097 40.6769 63.6217 40.6369 63.6217H39.2329Z" fill="#008949"/>
<path d="M35.3906 56.5297C35.3906 56.5697 35.3746 56.6057 35.3426 56.6377C35.3186 56.6617 35.2866 56.6737 35.2466 56.6737H31.3106C31.2706 56.6737 31.2506 56.6937 31.2506 56.7337V58.5937C31.2506 58.6337 31.2706 58.6537 31.3106 58.6537H33.8906C33.9306 58.6537 33.9626 58.6697 33.9866 58.7017C34.0186 58.7257 34.0346 58.7577 34.0346 58.7977V59.9617C34.0346 60.0017 34.0186 60.0377 33.9866 60.0697C33.9626 60.0937 33.9306 60.1057 33.8906 60.1057H31.3106C31.2706 60.1057 31.2506 60.1257 31.2506 60.1657V62.1097C31.2506 62.1497 31.2706 62.1697 31.3106 62.1697H35.2466C35.2866 62.1697 35.3186 62.1857 35.3426 62.2177C35.3746 62.2417 35.3906 62.2737 35.3906 62.3137V63.4777C35.3906 63.5177 35.3746 63.5537 35.3426 63.5857C35.3186 63.6097 35.2866 63.6217 35.2466 63.6217H29.7026C29.6626 63.6217 29.6266 63.6097 29.5946 63.5857C29.5706 63.5537 29.5586 63.5177 29.5586 63.4777V55.3657C29.5586 55.3257 29.5706 55.2937 29.5946 55.2697C29.6266 55.2377 29.6626 55.2217 29.7026 55.2217H35.2466C35.2866 55.2217 35.3186 55.2377 35.3426 55.2697C35.3746 55.2937 35.3906 55.3257 35.3906 55.3657V56.5297Z" fill="#008949"/>
<path d="M26.7359 63.6217C26.6559 63.6217 26.5999 63.5857 26.5679 63.5137L25.0679 60.1897C25.0519 60.1577 25.0279 60.1417 24.9959 60.1417H23.8799C23.8399 60.1417 23.8199 60.1617 23.8199 60.2017V63.4777C23.8199 63.5177 23.8039 63.5537 23.7719 63.5857C23.7479 63.6097 23.7159 63.6217 23.6759 63.6217H22.2719C22.2319 63.6217 22.1959 63.6097 22.1639 63.5857C22.1399 63.5537 22.1279 63.5177 22.1279 63.4777V55.3657C22.1279 55.3257 22.1399 55.2937 22.1639 55.2697C22.1959 55.2377 22.2319 55.2217 22.2719 55.2217H25.7039C26.2159 55.2217 26.6639 55.3257 27.0479 55.5337C27.4399 55.7417 27.7399 56.0377 27.9479 56.4217C28.1639 56.8057 28.2719 57.2497 28.2719 57.7537C28.2719 58.2977 28.1359 58.7657 27.8639 59.1577C27.5919 59.5417 27.2119 59.8137 26.7239 59.9737C26.6839 59.9897 26.6719 60.0177 26.6879 60.0577L28.3199 63.4537C28.3359 63.4857 28.3439 63.5097 28.3439 63.5257C28.3439 63.5897 28.2999 63.6217 28.2119 63.6217H26.7359ZM23.8799 56.6737C23.8399 56.6737 23.8199 56.6937 23.8199 56.7337V58.7857C23.8199 58.8257 23.8399 58.8457 23.8799 58.8457H25.4519C25.7879 58.8457 26.0599 58.7457 26.2679 58.5457C26.4839 58.3457 26.5919 58.0857 26.5919 57.7657C26.5919 57.4457 26.4839 57.1857 26.2679 56.9857C26.0599 56.7777 25.7879 56.6737 25.4519 56.6737H23.8799Z" fill="#008949"/>
<path d="M17.6023 63.754C16.9783 63.754 16.4263 63.626 15.9463 63.37C15.4743 63.114 15.1063 62.758 14.8423 62.302C14.5783 61.838 14.4463 61.306 14.4463 60.706V58.138C14.4463 57.546 14.5783 57.022 14.8423 56.566C15.1063 56.11 15.4743 55.758 15.9463 55.51C16.4263 55.254 16.9783 55.126 17.6023 55.126C18.2343 55.126 18.7863 55.254 19.2583 55.51C19.7383 55.758 20.1103 56.11 20.3743 56.566C20.6383 57.022 20.7703 57.546 20.7703 58.138V60.706C20.7703 61.306 20.6383 61.838 20.3743 62.302C20.1103 62.766 19.7383 63.126 19.2583 63.382C18.7863 63.63 18.2343 63.754 17.6023 63.754ZM17.6023 62.302C18.0423 62.302 18.3983 62.162 18.6703 61.882C18.9423 61.602 19.0783 61.23 19.0783 60.766V58.126C19.0783 57.662 18.9423 57.29 18.6703 57.01C18.4063 56.722 18.0503 56.578 17.6023 56.578C17.1623 56.578 16.8063 56.722 16.5343 57.01C16.2703 57.29 16.1383 57.662 16.1383 58.126V60.766C16.1383 61.23 16.2703 61.602 16.5343 61.882C16.8063 62.162 17.1623 62.302 17.6023 62.302Z" fill="#008949"/>
<path d="M11.3766 55.3177C11.4166 55.2537 11.4726 55.2217 11.5446 55.2217H12.9486C12.9886 55.2217 13.0206 55.2377 13.0446 55.2697C13.0766 55.2937 13.0926 55.3257 13.0926 55.3657V63.4777C13.0926 63.5177 13.0766 63.5537 13.0446 63.5857C13.0206 63.6097 12.9886 63.6217 12.9486 63.6217H11.5446C11.5046 63.6217 11.4686 63.6097 11.4366 63.5857C11.4126 63.5537 11.4006 63.5177 11.4006 63.4777V58.1857C11.4006 58.1537 11.3926 58.1377 11.3766 58.1377C11.3606 58.1377 11.3446 58.1497 11.3286 58.1737L10.0566 60.1657C10.0166 60.2297 9.96056 60.2617 9.88856 60.2617H9.18056C9.10856 60.2617 9.05256 60.2297 9.01256 60.1657L7.74056 58.1737C7.72456 58.1497 7.70856 58.1417 7.69256 58.1497C7.67656 58.1497 7.66856 58.1657 7.66856 58.1977V63.4777C7.66856 63.5177 7.65256 63.5537 7.62056 63.5857C7.59656 63.6097 7.56456 63.6217 7.52456 63.6217H6.12056C6.08056 63.6217 6.04456 63.6097 6.01256 63.5857C5.98856 63.5537 5.97656 63.5177 5.97656 63.4777V55.3657C5.97656 55.3257 5.98856 55.2937 6.01256 55.2697C6.04456 55.2377 6.08056 55.2217 6.12056 55.2217H7.52456C7.59656 55.2217 7.65256 55.2537 7.69256 55.3177L9.49256 58.1137C9.51656 58.1617 9.54056 58.1617 9.56456 58.1137L11.3766 55.3177Z" fill="#008949"/>
</svg>
