<svg width="48" height="48" viewBox="0 0 48 48" fill="none" xmlns="http://www.w3.org/2000/svg">
<circle cx="24" cy="24" r="23.5" stroke="#008949"/>
<path d="M34.7142 25.1777L26.4281 33.5104C26.107 33.8386 25.6823 34 25.2577 34C24.833 34 24.4094 33.8372 24.0862 33.5117C23.4389 32.8608 23.4389 31.8061 24.0862 31.1551L29.5457 25.6672H13.6571C12.742 25.6672 12 24.9225 12 24.0007C12 23.0788 12.742 22.3341 13.6571 22.3341H29.5457L24.0873 16.8449C23.4399 16.1939 23.4399 15.1392 24.0873 14.4882C24.7346 13.8373 25.7833 13.8373 26.4307 14.4882L34.7168 22.821C35.3615 23.4746 35.3615 24.5267 34.7142 25.1777Z" fill="#008949"/>
</svg>
