<svg width="23" height="24" viewBox="0 0 23 24" fill="none" xmlns="http://www.w3.org/2000/svg">
<path d="M9.53221 1.50195C7.84316 1.50195 6.19203 2.00282 4.78763 2.94121C3.38323 3.8796 2.28864 5.21337 1.64226 6.77385C0.995888 8.33434 0.826767 10.0514 1.15629 11.7081C1.4858 13.3647 2.29916 14.8863 3.49351 16.0807C4.68785 17.275 6.20954 18.0884 7.86614 18.4179C9.52274 18.7474 11.2399 18.5783 12.8003 17.9319C14.3608 17.2856 15.6946 16.191 16.633 14.7866C17.5714 13.3822 18.0722 11.731 18.0722 10.042C18.0721 7.77706 17.1723 5.60496 15.5708 4.00343C13.9692 2.40189 11.7971 1.5021 9.53221 1.50195Z" stroke="#8A8A8A" stroke-width="1.5" stroke-miterlimit="10"/>
<path d="M15.9043 16.4131L21.8686 22.3773" stroke="#8A8A8A" stroke-width="1.5" stroke-miterlimit="10" stroke-linecap="round"/>
</svg>
