<svg width="27" height="26" viewBox="0 0 27 26" fill="none" xmlns="http://www.w3.org/2000/svg">
<path d="M26.2632 10.7949C25.956 12.2796 25.5977 13.7642 25.2905 15.1977C25.0857 16.1704 24.881 17.1431 24.625 18.167C24.4714 18.8325 24.113 19.0885 23.4475 19.0885C18.5328 19.0885 13.6694 19.0885 8.75468 19.0885C8.08915 19.0885 7.73079 18.8325 7.57721 18.1158C6.80929 14.8393 6.04137 11.5117 5.22226 8.23522C4.76151 6.34102 4.30075 4.44683 3.8912 2.50143C3.84 2.19427 3.68642 2.09188 3.37925 2.14307C2.25297 2.14307 1.12669 2.14307 -0.0507812 2.14307C-0.0507812 1.52874 -0.0507812 0.965597 -0.0507812 0.351262C-0.0507812 0.300068 0.153997 0.146484 0.256386 0.146484C1.68983 0.146484 3.12328 0.146484 4.60792 0.146484C5.17106 0.146484 5.52942 0.504846 5.63181 1.06799C5.83659 1.8871 6.04137 2.70621 6.19495 3.57652C6.24615 3.93488 6.39973 4.03727 6.75809 4.03727C9.5226 4.03727 12.2871 4.03727 15.0516 4.03727C15.2052 4.03727 15.3588 4.03727 15.5124 4.03727C15.7171 4.7028 15.8707 5.36833 16.0243 6.03386C12.9526 6.03386 9.88096 6.03386 6.75809 6.03386C6.91168 6.69939 7.06526 7.31372 7.16765 7.97925C7.83318 10.8973 8.5499 13.8154 9.21543 16.7847C9.26663 17.0919 9.42021 17.1943 9.72738 17.1943C13.9253 17.1943 18.1745 17.1943 22.3724 17.1943C22.782 17.1943 22.8332 16.9383 22.8844 16.6823C23.2427 14.9417 23.6523 13.2011 24.0107 11.5117C24.0618 11.3581 24.2154 11.2045 24.3178 11.1533C25.0345 10.9997 25.6489 10.9485 26.2632 10.7949Z" fill="white"/>
<path d="M9.88053 25.9996C8.70305 25.9996 7.67916 25.0269 7.73036 23.8494C7.73036 22.6719 8.70305 21.6992 9.93172 21.6992C11.1604 21.6992 12.1331 22.6719 12.1331 23.8494C12.0819 25.0269 11.1604 25.9996 9.88053 25.9996Z" fill="white"/>
<path d="M22.576 25.9996C21.3473 25.9996 20.4258 25.0781 20.4258 23.8494C20.4258 22.6207 21.3473 21.6992 22.576 21.6992C23.8046 21.6992 24.7261 22.6207 24.7261 23.9006C24.7773 25.0781 23.8558 25.9996 22.576 25.9996Z" fill="white"/>
</svg>
