<svg width="49" height="31" viewBox="0 0 49 31" fill="none" xmlns="http://www.w3.org/2000/svg">
<g clip-path="url(#clip0_149_341)">
<path d="M45.7075 0H2.57452C1.15325 0 0 1.17763 0 2.63041V28.3387C0 29.7918 1.15269 30.9691 2.57452 30.9691H45.7075C47.1288 30.9691 48.2821 29.7915 48.2821 28.3387V2.63041C48.2821 1.17738 47.1294 0 45.7075 0ZM9.58926 21.9257L6.5354 10.7458C5.47946 10.1479 4.27455 9.66723 2.92718 9.3341L2.97102 9.06632H8.51003C9.25616 9.09466 9.85927 9.33788 10.0672 10.153L11.2714 16.0674L11.2717 16.068L11.63 17.8518L14.993 9.07444H18.6316L13.2237 21.9208L9.58926 21.9252V21.9257ZM21.3074 21.9367H17.8739L17.8738 21.9366L20.0215 9.06477H23.4565L21.3074 21.9367ZM27.285 22.1276C25.7445 22.1115 24.261 21.8003 23.4586 21.441L23.9407 18.5595L24.3832 18.7641C25.5114 19.2446 26.2418 19.4397 27.6166 19.4397C28.604 19.4397 29.6632 19.0455 29.6718 18.1828C29.6782 17.6193 29.2286 17.217 27.8916 16.5861C26.5886 15.9703 24.8626 14.9387 24.8817 13.0891C24.902 10.5871 27.2929 8.84126 30.6871 8.84126C32.0189 8.84126 33.0853 9.12113 33.7658 9.3819L33.3002 12.1718L32.9923 12.0232C32.3584 11.7625 31.5447 11.5123 30.4215 11.53C29.0767 11.53 28.4543 12.1022 28.4543 12.6372C28.4465 13.2401 29.1818 13.6375 30.3825 14.2328C32.3643 15.1516 33.2794 16.2659 33.2664 17.7301C33.2398 20.4019 30.8958 22.1276 27.285 22.1276ZM42.1671 21.9407C42.1671 21.9407 41.852 20.4626 41.7493 20.012C41.2483 20.012 37.7442 20.0065 37.35 20.0065C37.2167 20.3546 36.6268 21.9407 36.6268 21.9407H33.0197L38.1212 10.1446C38.4823 9.30645 39.0977 9.07723 39.9201 9.07723H42.5743L45.3546 21.941H42.1671V21.9407Z" fill="#1D5B99"/>
<path d="M38.338 17.3735C38.622 16.6318 39.7065 13.7753 39.7065 13.7753C39.6862 13.8096 39.9884 13.0301 40.1619 12.5469L40.3942 13.6566C40.3942 13.6566 41.0518 16.7291 41.1893 17.3734H38.3379L38.338 17.3735Z" fill="#1D5B99"/>
</g>
<defs>
<clipPath id="clip0_149_341">
<rect width="48.4375" height="31" fill="white"/>
</clipPath>
</defs>
</svg>
